<?xml version="1.0" standalone="no"?>
<!DOCTYPE svg PUBLIC "-//W3C//DTD SVG 20010904//EN"
 "http://www.w3.org/TR/2001/REC-SVG-20010904/DTD/svg10.dtd">
<svg version="1.0" xmlns="http://www.w3.org/2000/svg"
 width="700.000000pt" height="700.000000pt" viewBox="0 0 700.000000 700.000000"
 preserveAspectRatio="xMidYMid meet">
<metadata>
Created by potrace 1.14, written by Peter Selinger 2001-2017
</metadata>
<g transform="translate(0.000000,700.000000) scale(0.100000,-0.100000)"
fill="#000000" stroke="none">
<path d="M4828 6995 c-1 -1 -23 -5 -48 -8 -278 -36 -628 -220 -850 -446 -207
-211 -352 -476 -416 -760 -26 -117 -38 -280 -25 -356 l6 -40 80 1 c447 6 919
334 1153 800 71 141 130 309 147 419 20 123 23 159 23 252 1 129 -2 140 -38
141 -15 0 -30 -1 -32 -3z"/>
<path d="M4638 5305 c-2 -2 -28 -6 -58 -10 -45 -5 -113 -19 -195 -39 -100 -25
-180 -52 -440 -151 -400 -152 -430 -152 -830 7 -82 33 -154 61 -160 63 -5 1
-17 5 -25 8 -87 35 -260 82 -350 95 -109 16 -374 7 -482 -17 -24 -6 -55 -12
-69 -14 -61 -11 -248 -81 -341 -127 -82 -41 -203 -113 -253 -152 -180 -138
-303 -268 -416 -438 -38 -58 -73 -109 -77 -115 -13 -18 -100 -198 -122 -255
-42 -106 -94 -278 -114 -380 -44 -223 -51 -305 -51 -580 0 -220 5 -313 26
-455 5 -38 12 -86 15 -105 23 -169 134 -610 184 -735 5 -11 21 -54 36 -95 114
-316 285 -651 472 -925 180 -265 302 -417 452 -566 221 -219 396 -309 610
-314 166 -5 292 25 526 123 293 123 412 153 637 157 82 1 165 -1 185 -5 21 -5
55 -11 77 -14 93 -13 197 -49 471 -164 159 -66 294 -92 454 -87 382 12 667
248 1101 910 141 215 251 426 369 710 29 70 82 228 77 230 -1 1 -47 25 -102
54 -436 231 -738 641 -810 1103 -22 136 -28 387 -12 463 3 11 8 43 11 70 11
76 60 240 101 334 55 129 172 315 250 397 115 122 174 177 256 238 53 39 103
76 112 81 15 9 11 18 -33 77 -301 398 -786 625 -1342 626 -75 0 -138 -1 -140
-3z"/>
</g>
</svg>
